<?xml version="1.0" encoding="UTF-8" standalone="no"?>
<!DOCTYPE svg PUBLIC "-//W3C//DTD SVG 1.1//EN" "http://www.w3.org/Graphics/SVG/1.1/DTD/svg11.dtd">
<svg width="100%" height="100%" viewBox="0 0 2480 508" version="1.1" xmlns="http://www.w3.org/2000/svg" xmlns:xlink="http://www.w3.org/1999/xlink" xml:space="preserve" xmlns:serif="http://www.serif.com/" style="fill-rule:evenodd;clip-rule:evenodd;stroke-linejoin:round;stroke-miterlimit:2;">
    <g transform="matrix(1,0,0,1,-259,-84)">
        <path d="M264.248,107.284L311.048,107.284L311.048,320.884L312.248,320.884C325.048,305.684 339.948,293.884 356.948,285.484C373.948,277.084 392.648,272.884 413.048,272.884C435.048,272.884 455.148,276.584 473.348,283.984C491.548,291.384 507.048,301.684 519.848,314.884C532.648,328.084 542.648,343.684 549.848,361.684C557.048,379.684 560.648,399.284 560.648,420.484C560.648,441.684 557.048,461.284 549.848,479.284C542.648,497.284 532.748,512.884 520.148,526.084C507.548,539.284 492.648,549.584 475.448,556.984C458.248,564.384 439.848,568.084 420.248,568.084C395.048,568.084 372.948,562.584 353.948,551.584C334.948,540.584 321.048,527.084 312.248,511.084L311.048,511.084L311.048,560.884L264.248,560.884L264.248,107.284ZM311.048,420.484C311.048,435.284 313.348,448.984 317.948,461.584C322.548,474.184 329.248,485.184 338.048,494.584C346.848,503.984 357.348,511.384 369.548,516.784C381.748,522.184 395.448,524.884 410.648,524.884C425.848,524.884 439.548,522.184 451.748,516.784C463.948,511.384 474.448,503.984 483.248,494.584C492.048,485.184 498.748,474.184 503.348,461.584C507.948,448.984 510.248,435.284 510.248,420.484C510.248,405.684 507.948,391.984 503.348,379.384C498.748,366.784 492.048,355.784 483.248,346.384C474.448,336.984 463.948,329.584 451.748,324.184C439.548,318.784 425.848,316.084 410.648,316.084C395.448,316.084 381.748,318.784 369.548,324.184C357.348,329.584 346.848,336.984 338.048,346.384C329.248,355.784 322.548,366.784 317.948,379.384C313.348,391.984 311.048,405.684 311.048,420.484Z" style="fill-opacity:0;fill-rule:nonzero;stroke:rgb(214,214,214);stroke-width:1px;"/>
        <path d="M617.048,420.484C617.048,398.484 620.848,378.484 628.448,360.484C636.048,342.484 646.448,326.984 659.648,313.984C672.848,300.984 688.648,290.884 707.048,283.684C725.448,276.484 745.448,272.884 767.048,272.884C788.648,272.884 808.648,276.484 827.048,283.684C845.448,290.884 861.248,300.984 874.448,313.984C887.648,326.984 898.048,342.484 905.648,360.484C913.248,378.484 917.048,398.484 917.048,420.484C917.048,442.484 913.248,462.484 905.648,480.484C898.048,498.484 887.648,513.984 874.448,526.984C861.248,539.984 845.448,550.084 827.048,557.284C808.648,564.484 788.648,568.084 767.048,568.084C745.448,568.084 725.448,564.484 707.048,557.284C688.648,550.084 672.848,539.984 659.648,526.984C646.448,513.984 636.048,498.484 628.448,480.484C620.848,462.484 617.048,442.484 617.048,420.484ZM667.448,420.484C667.448,435.284 669.748,448.984 674.348,461.584C678.948,474.184 685.648,485.184 694.448,494.584C703.248,503.984 713.748,511.384 725.948,516.784C738.148,522.184 751.848,524.884 767.048,524.884C782.248,524.884 795.948,522.184 808.148,516.784C820.348,511.384 830.848,503.984 839.648,494.584C848.448,485.184 855.148,474.184 859.748,461.584C864.348,448.984 866.648,435.284 866.648,420.484C866.648,405.684 864.348,391.984 859.748,379.384C855.148,366.784 848.448,355.784 839.648,346.384C830.848,336.984 820.348,329.584 808.148,324.184C795.948,318.784 782.248,316.084 767.048,316.084C751.848,316.084 738.148,318.784 725.948,324.184C713.748,329.584 703.248,336.984 694.448,346.384C685.648,355.784 678.948,366.784 674.348,379.384C669.748,391.984 667.448,405.684 667.448,420.484Z" style="fill-opacity:0;fill-rule:nonzero;stroke:rgb(214,214,214);stroke-width:1px;"/>
        <path d="M973.448,420.484C973.448,398.484 977.248,378.484 984.848,360.484C992.448,342.484 1002.848,326.984 1016.048,313.984C1029.248,300.984 1045.048,290.884 1063.448,283.684C1081.848,276.484 1101.848,272.884 1123.448,272.884C1145.048,272.884 1165.048,276.484 1183.448,283.684C1201.848,290.884 1217.648,300.984 1230.848,313.984C1244.048,326.984 1254.448,342.484 1262.048,360.484C1269.648,378.484 1273.448,398.484 1273.448,420.484C1273.448,442.484 1269.648,462.484 1262.048,480.484C1254.448,498.484 1244.048,513.984 1230.848,526.984C1217.648,539.984 1201.848,550.084 1183.448,557.284C1165.048,564.484 1145.048,568.084 1123.448,568.084C1101.848,568.084 1081.848,564.484 1063.448,557.284C1045.048,550.084 1029.248,539.984 1016.048,526.984C1002.848,513.984 992.448,498.484 984.848,480.484C977.248,462.484 973.448,442.484 973.448,420.484ZM1023.848,420.484C1023.848,435.284 1026.148,448.984 1030.748,461.584C1035.348,474.184 1042.048,485.184 1050.848,494.584C1059.648,503.984 1070.148,511.384 1082.348,516.784C1094.548,522.184 1108.248,524.884 1123.448,524.884C1138.648,524.884 1152.348,522.184 1164.548,516.784C1176.748,511.384 1187.248,503.984 1196.048,494.584C1204.848,485.184 1211.548,474.184 1216.148,461.584C1220.748,448.984 1223.048,435.284 1223.048,420.484C1223.048,405.684 1220.748,391.984 1216.148,379.384C1211.548,366.784 1204.848,355.784 1196.048,346.384C1187.248,336.984 1176.748,329.584 1164.548,324.184C1152.348,318.784 1138.648,316.084 1123.448,316.084C1108.248,316.084 1094.548,318.784 1082.348,324.184C1070.148,329.584 1059.648,336.984 1050.848,346.384C1042.048,355.784 1035.348,366.784 1030.748,379.384C1026.148,391.984 1023.848,405.684 1023.848,420.484Z" style="fill-opacity:0;fill-rule:nonzero;stroke:rgb(214,214,214);stroke-width:1px;"/>
        <path d="M1346.048,107.284L1392.848,107.284L1392.848,403.684L1520.648,280.084L1587.248,280.084L1451.648,407.884L1601.048,560.884L1532.048,560.884L1392.848,413.284L1392.848,560.884L1346.048,560.884L1346.048,107.284Z" style="fill-opacity:0;fill-rule:nonzero;stroke:rgb(214,214,214);stroke-width:1px;"/>
        <path d="M1642.448,316.084C1656.848,301.284 1673.948,290.384 1693.748,283.384C1713.548,276.384 1733.648,272.884 1754.048,272.884C1795.648,272.884 1825.648,282.684 1844.048,302.284C1862.448,321.884 1871.648,351.684 1871.648,391.684L1871.648,512.284C1871.648,520.284 1872.048,528.584 1872.848,537.184C1873.648,545.784 1874.648,553.684 1875.848,560.884L1830.848,560.884C1829.248,554.484 1828.348,547.384 1828.148,539.584C1827.948,531.784 1827.848,524.884 1827.848,518.884L1826.648,518.884C1817.448,533.284 1805.148,545.084 1789.748,554.284C1774.348,563.484 1755.848,568.084 1734.248,568.084C1719.848,568.084 1706.348,566.284 1693.748,562.684C1681.148,559.084 1670.148,553.784 1660.748,546.784C1651.348,539.784 1643.848,531.084 1638.248,520.684C1632.648,510.284 1629.848,498.284 1629.848,484.684C1629.848,461.484 1635.848,443.284 1647.848,430.084C1659.848,416.884 1674.748,407.084 1692.548,400.684C1710.348,394.284 1729.548,390.284 1750.148,388.684C1770.748,387.084 1789.648,386.284 1806.848,386.284L1824.848,386.284L1824.848,377.884C1824.848,357.484 1818.748,342.084 1806.548,331.684C1794.348,321.284 1777.248,316.084 1755.248,316.084C1740.048,316.084 1725.148,318.584 1710.548,323.584C1695.948,328.584 1683.048,336.284 1671.848,346.684L1642.448,316.084ZM1778.048,425.884C1748.048,425.884 1724.248,430.084 1706.648,438.484C1689.048,446.884 1680.248,460.684 1680.248,479.884C1680.248,497.484 1686.148,509.984 1697.948,517.384C1709.748,524.784 1724.448,528.484 1742.048,528.484C1755.648,528.484 1767.548,526.184 1777.748,521.584C1787.948,516.984 1796.448,510.884 1803.248,503.284C1810.048,495.684 1815.248,486.784 1818.848,476.584C1822.448,466.384 1824.448,455.484 1824.848,443.884L1824.848,425.884L1778.048,425.884Z" style="fill-opacity:0;fill-rule:nonzero;stroke:rgb(214,214,214);stroke-width:1px;"/>
        <path d="M1955.048,107.284L2001.848,107.284L2001.848,320.884L2003.048,320.884C2015.848,305.684 2030.748,293.884 2047.748,285.484C2064.748,277.084 2083.448,272.884 2103.848,272.884C2125.848,272.884 2145.948,276.584 2164.148,283.984C2182.348,291.384 2197.848,301.684 2210.648,314.884C2223.448,328.084 2233.448,343.684 2240.648,361.684C2247.848,379.684 2251.448,399.284 2251.448,420.484C2251.448,441.684 2247.848,461.284 2240.648,479.284C2233.448,497.284 2223.548,512.884 2210.948,526.084C2198.348,539.284 2183.448,549.584 2166.248,556.984C2149.048,564.384 2130.648,568.084 2111.048,568.084C2085.848,568.084 2063.748,562.584 2044.748,551.584C2025.748,540.584 2011.848,527.084 2003.048,511.084L2001.848,511.084L2001.848,560.884L1955.048,560.884L1955.048,107.284ZM2001.848,420.484C2001.848,435.284 2004.148,448.984 2008.748,461.584C2013.348,474.184 2020.048,485.184 2028.848,494.584C2037.648,503.984 2048.148,511.384 2060.348,516.784C2072.548,522.184 2086.248,524.884 2101.448,524.884C2116.648,524.884 2130.348,522.184 2142.548,516.784C2154.748,511.384 2165.248,503.984 2174.048,494.584C2182.848,485.184 2189.548,474.184 2194.148,461.584C2198.748,448.984 2201.048,435.284 2201.048,420.484C2201.048,405.684 2198.748,391.984 2194.148,379.384C2189.548,366.784 2182.848,355.784 2174.048,346.384C2165.248,336.984 2154.748,329.584 2142.548,324.184C2130.348,318.784 2116.648,316.084 2101.448,316.084C2086.248,316.084 2072.548,318.784 2060.348,324.184C2048.148,329.584 2037.648,336.984 2028.848,346.384C2020.048,355.784 2013.348,366.784 2008.748,379.384C2004.148,391.984 2001.848,405.684 2001.848,420.484Z" style="fill-opacity:0;fill-rule:nonzero;stroke:rgb(214,214,214);stroke-width:1px;"/>
        <rect x="2328.248" y="107.284" width="46.8" height="453.6" style="fill-opacity:0;fill-rule:nonzero;stroke:rgb(214,214,214);stroke-width:1px;"/>
        <path d="M2718.848,509.884C2702.048,531.484 2683.648,546.584 2663.648,555.184C2643.648,563.784 2620.448,568.084 2594.048,568.084C2572.048,568.084 2552.248,564.184 2534.648,556.384C2517.048,548.584 2502.148,538.084 2489.948,524.884C2477.748,511.684 2468.348,496.084 2461.748,478.084C2455.148,460.084 2451.848,440.884 2451.848,420.484C2451.848,398.884 2455.448,378.984 2462.648,360.784C2469.848,342.584 2479.848,326.984 2492.648,313.984C2505.448,300.984 2520.648,290.884 2538.248,283.684C2555.848,276.484 2575.048,272.884 2595.848,272.884C2615.448,272.884 2633.448,276.184 2649.848,282.784C2666.248,289.384 2680.348,298.984 2692.148,311.584C2703.948,324.184 2713.048,339.584 2719.448,357.784C2725.848,375.984 2729.048,396.684 2729.048,419.884L2729.048,434.884L2502.248,434.884C2503.048,446.884 2505.948,458.384 2510.948,469.384C2515.948,480.384 2522.448,489.984 2530.448,498.184C2538.448,506.384 2547.848,512.884 2558.648,517.684C2569.448,522.484 2581.248,524.884 2594.048,524.884C2614.448,524.884 2631.648,521.284 2645.648,514.084C2659.648,506.884 2672.248,496.284 2683.448,482.284L2718.848,509.884ZM2678.648,395.284C2677.848,371.284 2670.048,352.084 2655.248,337.684C2640.448,323.284 2620.048,316.084 2594.048,316.084C2568.048,316.084 2547.048,323.284 2531.048,337.684C2515.048,352.084 2505.448,371.284 2502.248,395.284L2678.648,395.284Z" style="fill-opacity:0;fill-rule:nonzero;stroke:rgb(214,214,214);stroke-width:1px;"/>
    </g>
</svg>
